<mxfile host="app.diagrams.net" modified="2021-09-20T04:13:37.662Z" agent="5.0 (Windows NT 10.0; Win64; x64) AppleWebKit/537.36 (KHTML, like Gecko) Chrome/93.0.4577.82 Safari/537.36" etag="GtOvCCQtwXN2Uc123wRU" version="15.2.9" type="github">
  <diagram id="O9bzz8WRnijOC_oqu82j" name="user">
    <mxGraphModel dx="868" dy="450" grid="1" gridSize="10" guides="1" tooltips="1" connect="1" arrows="1" fold="1" page="1" pageScale="1" pageWidth="850" pageHeight="1100" math="0" shadow="0">
      <root>
        <mxCell id="0" />
        <mxCell id="1" parent="0" />
        <mxCell id="5iCUW2i08om3TZ-6oU05-5" style="edgeStyle=orthogonalEdgeStyle;rounded=0;orthogonalLoop=1;jettySize=auto;html=1;exitX=1;exitY=0.25;exitDx=0;exitDy=0;" parent="1" source="5iCUW2i08om3TZ-6oU05-1" target="5iCUW2i08om3TZ-6oU05-2" edge="1">
          <mxGeometry relative="1" as="geometry">
            <Array as="points">
              <mxPoint x="180" y="305" />
              <mxPoint x="180" y="40" />
            </Array>
          </mxGeometry>
        </mxCell>
        <mxCell id="5iCUW2i08om3TZ-6oU05-35" style="edgeStyle=orthogonalEdgeStyle;rounded=0;orthogonalLoop=1;jettySize=auto;html=1;exitX=1;exitY=0.25;exitDx=0;exitDy=0;entryX=0.011;entryY=0.379;entryDx=0;entryDy=0;entryPerimeter=0;" parent="1" source="5iCUW2i08om3TZ-6oU05-1" target="5iCUW2i08om3TZ-6oU05-21" edge="1">
          <mxGeometry relative="1" as="geometry">
            <Array as="points">
              <mxPoint x="180" y="305" />
              <mxPoint x="180" y="190" />
              <mxPoint x="211" y="190" />
            </Array>
          </mxGeometry>
        </mxCell>
        <mxCell id="5iCUW2i08om3TZ-6oU05-76" style="edgeStyle=orthogonalEdgeStyle;rounded=0;orthogonalLoop=1;jettySize=auto;html=1;exitX=1;exitY=0.25;exitDx=0;exitDy=0;entryX=0;entryY=0.25;entryDx=0;entryDy=0;" parent="1" source="5iCUW2i08om3TZ-6oU05-1" target="5iCUW2i08om3TZ-6oU05-60" edge="1">
          <mxGeometry relative="1" as="geometry">
            <Array as="points">
              <mxPoint x="180" y="305" />
              <mxPoint x="180" y="105" />
            </Array>
          </mxGeometry>
        </mxCell>
        <mxCell id="5iCUW2i08om3TZ-6oU05-78" style="edgeStyle=orthogonalEdgeStyle;rounded=0;orthogonalLoop=1;jettySize=auto;html=1;exitX=1;exitY=0.25;exitDx=0;exitDy=0;entryX=0;entryY=0.25;entryDx=0;entryDy=0;" parent="1" source="5iCUW2i08om3TZ-6oU05-1" target="5iCUW2i08om3TZ-6oU05-77" edge="1">
          <mxGeometry relative="1" as="geometry">
            <Array as="points">
              <mxPoint x="180" y="305" />
              <mxPoint x="180" y="355" />
            </Array>
          </mxGeometry>
        </mxCell>
        <mxCell id="5iCUW2i08om3TZ-6oU05-101" style="edgeStyle=orthogonalEdgeStyle;rounded=0;orthogonalLoop=1;jettySize=auto;html=1;exitX=1;exitY=0.25;exitDx=0;exitDy=0;entryX=0;entryY=0.5;entryDx=0;entryDy=0;" parent="1" source="5iCUW2i08om3TZ-6oU05-1" target="5iCUW2i08om3TZ-6oU05-100" edge="1">
          <mxGeometry relative="1" as="geometry">
            <Array as="points">
              <mxPoint x="180" y="305" />
              <mxPoint x="180" y="450" />
            </Array>
          </mxGeometry>
        </mxCell>
        <mxCell id="5iCUW2i08om3TZ-6oU05-139" style="edgeStyle=orthogonalEdgeStyle;rounded=0;orthogonalLoop=1;jettySize=auto;html=1;exitX=1;exitY=0.25;exitDx=0;exitDy=0;entryX=0;entryY=0.5;entryDx=0;entryDy=0;" parent="1" source="5iCUW2i08om3TZ-6oU05-1" target="5iCUW2i08om3TZ-6oU05-138" edge="1">
          <mxGeometry relative="1" as="geometry">
            <Array as="points">
              <mxPoint x="180" y="305" />
              <mxPoint x="180" y="550" />
            </Array>
          </mxGeometry>
        </mxCell>
        <mxCell id="5iCUW2i08om3TZ-6oU05-147" style="edgeStyle=orthogonalEdgeStyle;rounded=0;orthogonalLoop=1;jettySize=auto;html=1;exitX=1;exitY=0.25;exitDx=0;exitDy=0;entryX=0;entryY=0.5;entryDx=0;entryDy=0;" parent="1" source="5iCUW2i08om3TZ-6oU05-1" target="5iCUW2i08om3TZ-6oU05-146" edge="1">
          <mxGeometry relative="1" as="geometry">
            <Array as="points">
              <mxPoint x="180" y="305" />
              <mxPoint x="180" y="635" />
            </Array>
          </mxGeometry>
        </mxCell>
        <mxCell id="5iCUW2i08om3TZ-6oU05-1" value="End User" style="rounded=1;whiteSpace=wrap;html=1;" parent="1" vertex="1">
          <mxGeometry x="40" y="290" width="120" height="60" as="geometry" />
        </mxCell>
        <mxCell id="5iCUW2i08om3TZ-6oU05-7" value="" style="edgeStyle=orthogonalEdgeStyle;rounded=0;orthogonalLoop=1;jettySize=auto;html=1;" parent="1" source="5iCUW2i08om3TZ-6oU05-2" target="5iCUW2i08om3TZ-6oU05-6" edge="1">
          <mxGeometry relative="1" as="geometry" />
        </mxCell>
        <mxCell id="5iCUW2i08om3TZ-6oU05-141" style="edgeStyle=orthogonalEdgeStyle;rounded=0;orthogonalLoop=1;jettySize=auto;html=1;exitX=1;exitY=0.5;exitDx=0;exitDy=0;entryX=0;entryY=0.5;entryDx=0;entryDy=0;" parent="1" source="5iCUW2i08om3TZ-6oU05-2" target="5iCUW2i08om3TZ-6oU05-140" edge="1">
          <mxGeometry relative="1" as="geometry">
            <Array as="points">
              <mxPoint x="350" y="40" />
              <mxPoint x="350" y="55" />
            </Array>
          </mxGeometry>
        </mxCell>
        <mxCell id="5iCUW2i08om3TZ-6oU05-2" value="User Profile" style="rounded=1;whiteSpace=wrap;html=1;" parent="1" vertex="1">
          <mxGeometry x="210" y="10" width="120" height="60" as="geometry" />
        </mxCell>
        <mxCell id="5iCUW2i08om3TZ-6oU05-6" value="Fill Basic Information" style="whiteSpace=wrap;html=1;rounded=1;" parent="1" vertex="1">
          <mxGeometry x="360" width="120" height="30" as="geometry" />
        </mxCell>
        <mxCell id="5iCUW2i08om3TZ-6oU05-64" style="edgeStyle=orthogonalEdgeStyle;rounded=0;orthogonalLoop=1;jettySize=auto;html=1;exitX=1;exitY=0.25;exitDx=0;exitDy=0;entryX=0;entryY=0.5;entryDx=0;entryDy=0;" parent="1" source="5iCUW2i08om3TZ-6oU05-3" target="5iCUW2i08om3TZ-6oU05-36" edge="1">
          <mxGeometry relative="1" as="geometry">
            <Array as="points">
              <mxPoint x="525" y="92" />
              <mxPoint x="525" y="40" />
            </Array>
          </mxGeometry>
        </mxCell>
        <mxCell id="5iCUW2i08om3TZ-6oU05-142" style="edgeStyle=orthogonalEdgeStyle;rounded=0;orthogonalLoop=1;jettySize=auto;html=1;exitX=1;exitY=0.25;exitDx=0;exitDy=0;entryX=0;entryY=0.25;entryDx=0;entryDy=0;" parent="1" source="5iCUW2i08om3TZ-6oU05-3" target="5iCUW2i08om3TZ-6oU05-17" edge="1">
          <mxGeometry relative="1" as="geometry" />
        </mxCell>
        <mxCell id="5iCUW2i08om3TZ-6oU05-3" value="&lt;span&gt;Top up&lt;/span&gt;" style="rounded=1;whiteSpace=wrap;html=1;" parent="1" vertex="1">
          <mxGeometry x="360" y="84" width="120" height="30" as="geometry" />
        </mxCell>
        <mxCell id="5iCUW2i08om3TZ-6oU05-17" value="Check &lt;br&gt;Top up History" style="rounded=1;whiteSpace=wrap;html=1;" parent="1" vertex="1">
          <mxGeometry x="570" y="56" width="120" height="40" as="geometry" />
        </mxCell>
        <mxCell id="5iCUW2i08om3TZ-6oU05-28" style="edgeStyle=orthogonalEdgeStyle;rounded=0;orthogonalLoop=1;jettySize=auto;html=1;exitX=1;exitY=0.5;exitDx=0;exitDy=0;entryX=0;entryY=0.5;entryDx=0;entryDy=0;" parent="1" source="5iCUW2i08om3TZ-6oU05-21" target="5iCUW2i08om3TZ-6oU05-24" edge="1">
          <mxGeometry relative="1" as="geometry" />
        </mxCell>
        <mxCell id="5iCUW2i08om3TZ-6oU05-29" style="edgeStyle=orthogonalEdgeStyle;rounded=0;orthogonalLoop=1;jettySize=auto;html=1;exitX=1;exitY=0.5;exitDx=0;exitDy=0;entryX=0;entryY=0.25;entryDx=0;entryDy=0;" parent="1" source="5iCUW2i08om3TZ-6oU05-21" target="5iCUW2i08om3TZ-6oU05-26" edge="1">
          <mxGeometry relative="1" as="geometry">
            <Array as="points">
              <mxPoint x="340" y="190" />
              <mxPoint x="340" y="227" />
            </Array>
          </mxGeometry>
        </mxCell>
        <mxCell id="5iCUW2i08om3TZ-6oU05-32" style="edgeStyle=orthogonalEdgeStyle;rounded=0;orthogonalLoop=1;jettySize=auto;html=1;exitX=1;exitY=0.5;exitDx=0;exitDy=0;entryX=0;entryY=0.5;entryDx=0;entryDy=0;" parent="1" source="5iCUW2i08om3TZ-6oU05-21" target="5iCUW2i08om3TZ-6oU05-31" edge="1">
          <mxGeometry relative="1" as="geometry">
            <Array as="points">
              <mxPoint x="340" y="190" />
              <mxPoint x="340" y="275" />
            </Array>
          </mxGeometry>
        </mxCell>
        <mxCell id="5iCUW2i08om3TZ-6oU05-89" style="edgeStyle=orthogonalEdgeStyle;rounded=0;orthogonalLoop=1;jettySize=auto;html=1;exitX=1;exitY=0.5;exitDx=0;exitDy=0;entryX=0;entryY=0.5;entryDx=0;entryDy=0;" parent="1" source="5iCUW2i08om3TZ-6oU05-21" target="5iCUW2i08om3TZ-6oU05-88" edge="1">
          <mxGeometry relative="1" as="geometry">
            <Array as="points">
              <mxPoint x="340" y="190" />
              <mxPoint x="340" y="310" />
            </Array>
          </mxGeometry>
        </mxCell>
        <mxCell id="5iCUW2i08om3TZ-6oU05-21" value="&lt;span&gt;Social in app&lt;/span&gt;" style="rounded=1;whiteSpace=wrap;html=1;" parent="1" vertex="1">
          <mxGeometry x="210" y="160" width="120" height="60" as="geometry" />
        </mxCell>
        <mxCell id="5iCUW2i08om3TZ-6oU05-70" style="edgeStyle=orthogonalEdgeStyle;rounded=0;orthogonalLoop=1;jettySize=auto;html=1;exitX=1;exitY=0.5;exitDx=0;exitDy=0;entryX=0;entryY=0.5;entryDx=0;entryDy=0;" parent="1" source="5iCUW2i08om3TZ-6oU05-24" target="5iCUW2i08om3TZ-6oU05-69" edge="1">
          <mxGeometry relative="1" as="geometry" />
        </mxCell>
        <mxCell id="5iCUW2i08om3TZ-6oU05-72" style="edgeStyle=orthogonalEdgeStyle;rounded=0;orthogonalLoop=1;jettySize=auto;html=1;exitX=1;exitY=0.5;exitDx=0;exitDy=0;entryX=0;entryY=0.5;entryDx=0;entryDy=0;" parent="1" source="5iCUW2i08om3TZ-6oU05-24" target="5iCUW2i08om3TZ-6oU05-71" edge="1">
          <mxGeometry relative="1" as="geometry" />
        </mxCell>
        <mxCell id="5iCUW2i08om3TZ-6oU05-74" style="edgeStyle=orthogonalEdgeStyle;rounded=0;orthogonalLoop=1;jettySize=auto;html=1;exitX=1;exitY=0.5;exitDx=0;exitDy=0;entryX=0;entryY=0.5;entryDx=0;entryDy=0;" parent="1" source="5iCUW2i08om3TZ-6oU05-24" target="5iCUW2i08om3TZ-6oU05-73" edge="1">
          <mxGeometry relative="1" as="geometry" />
        </mxCell>
        <mxCell id="5iCUW2i08om3TZ-6oU05-24" value="Team by Games" style="rounded=1;whiteSpace=wrap;html=1;" parent="1" vertex="1">
          <mxGeometry x="360" y="180" width="120" height="30" as="geometry" />
        </mxCell>
        <mxCell id="5iCUW2i08om3TZ-6oU05-26" value="Chat with other" style="rounded=1;whiteSpace=wrap;html=1;" parent="1" vertex="1">
          <mxGeometry x="360" y="220" width="120" height="30" as="geometry" />
        </mxCell>
        <mxCell id="5iCUW2i08om3TZ-6oU05-31" value="Chat in Campaint" style="rounded=1;whiteSpace=wrap;html=1;" parent="1" vertex="1">
          <mxGeometry x="360" y="260" width="120" height="30" as="geometry" />
        </mxCell>
        <mxCell id="5iCUW2i08om3TZ-6oU05-36" value="Top up" style="whiteSpace=wrap;html=1;rounded=1;" parent="1" vertex="1">
          <mxGeometry x="570" y="25" width="120" height="30" as="geometry" />
        </mxCell>
        <mxCell id="5iCUW2i08om3TZ-6oU05-62" style="edgeStyle=orthogonalEdgeStyle;rounded=0;orthogonalLoop=1;jettySize=auto;html=1;exitX=1;exitY=0.25;exitDx=0;exitDy=0;entryX=0;entryY=0.25;entryDx=0;entryDy=0;" parent="1" source="5iCUW2i08om3TZ-6oU05-54" target="5iCUW2i08om3TZ-6oU05-55" edge="1">
          <mxGeometry relative="1" as="geometry" />
        </mxCell>
        <mxCell id="5iCUW2i08om3TZ-6oU05-63" style="edgeStyle=orthogonalEdgeStyle;rounded=0;orthogonalLoop=1;jettySize=auto;html=1;exitX=1;exitY=0.25;exitDx=0;exitDy=0;entryX=0;entryY=0.5;entryDx=0;entryDy=0;" parent="1" source="5iCUW2i08om3TZ-6oU05-54" target="5iCUW2i08om3TZ-6oU05-56" edge="1">
          <mxGeometry relative="1" as="geometry" />
        </mxCell>
        <mxCell id="5iCUW2i08om3TZ-6oU05-54" value="&lt;span&gt;Withdraw&lt;/span&gt;" style="rounded=1;whiteSpace=wrap;html=1;" parent="1" vertex="1">
          <mxGeometry x="360" y="120" width="120" height="30" as="geometry" />
        </mxCell>
        <mxCell id="5iCUW2i08om3TZ-6oU05-55" value="With Draw" style="whiteSpace=wrap;html=1;rounded=1;" parent="1" vertex="1">
          <mxGeometry x="570" y="100" width="120" height="30" as="geometry" />
        </mxCell>
        <mxCell id="5iCUW2i08om3TZ-6oU05-56" value="Check &lt;br&gt;With draw History" style="rounded=1;whiteSpace=wrap;html=1;" parent="1" vertex="1">
          <mxGeometry x="570" y="140" width="120" height="40" as="geometry" />
        </mxCell>
        <mxCell id="5iCUW2i08om3TZ-6oU05-61" style="edgeStyle=orthogonalEdgeStyle;rounded=0;orthogonalLoop=1;jettySize=auto;html=1;exitX=1;exitY=0.25;exitDx=0;exitDy=0;entryX=0;entryY=0.25;entryDx=0;entryDy=0;" parent="1" source="5iCUW2i08om3TZ-6oU05-60" target="5iCUW2i08om3TZ-6oU05-3" edge="1">
          <mxGeometry relative="1" as="geometry">
            <Array as="points">
              <mxPoint x="350" y="105" />
              <mxPoint x="350" y="92" />
              <mxPoint x="360" y="92" />
            </Array>
          </mxGeometry>
        </mxCell>
        <mxCell id="5iCUW2i08om3TZ-6oU05-66" style="edgeStyle=orthogonalEdgeStyle;rounded=0;orthogonalLoop=1;jettySize=auto;html=1;exitX=1;exitY=0.25;exitDx=0;exitDy=0;" parent="1" source="5iCUW2i08om3TZ-6oU05-60" target="5iCUW2i08om3TZ-6oU05-54" edge="1">
          <mxGeometry relative="1" as="geometry" />
        </mxCell>
        <mxCell id="5iCUW2i08om3TZ-6oU05-60" value="&lt;span&gt;Wallet&lt;/span&gt;" style="rounded=1;whiteSpace=wrap;html=1;" parent="1" vertex="1">
          <mxGeometry x="210" y="90" width="120" height="60" as="geometry" />
        </mxCell>
        <mxCell id="5iCUW2i08om3TZ-6oU05-91" style="edgeStyle=orthogonalEdgeStyle;rounded=0;orthogonalLoop=1;jettySize=auto;html=1;exitX=1;exitY=0.5;exitDx=0;exitDy=0;entryX=0;entryY=0.25;entryDx=0;entryDy=0;" parent="1" source="5iCUW2i08om3TZ-6oU05-69" target="5iCUW2i08om3TZ-6oU05-90" edge="1">
          <mxGeometry relative="1" as="geometry">
            <Array as="points">
              <mxPoint x="650" y="205" />
              <mxPoint x="650" y="238" />
            </Array>
          </mxGeometry>
        </mxCell>
        <mxCell id="5iCUW2i08om3TZ-6oU05-69" value="Chat" style="rounded=1;whiteSpace=wrap;html=1;" parent="1" vertex="1">
          <mxGeometry x="520" y="190" width="120" height="30" as="geometry" />
        </mxCell>
        <mxCell id="5iCUW2i08om3TZ-6oU05-92" style="edgeStyle=orthogonalEdgeStyle;rounded=0;orthogonalLoop=1;jettySize=auto;html=1;exitX=1;exitY=0.5;exitDx=0;exitDy=0;entryX=0;entryY=0.5;entryDx=0;entryDy=0;" parent="1" source="5iCUW2i08om3TZ-6oU05-71" target="5iCUW2i08om3TZ-6oU05-90" edge="1">
          <mxGeometry relative="1" as="geometry" />
        </mxCell>
        <mxCell id="5iCUW2i08om3TZ-6oU05-71" value="Accept Team member" style="rounded=1;whiteSpace=wrap;html=1;" parent="1" vertex="1">
          <mxGeometry x="520" y="230" width="120" height="30" as="geometry" />
        </mxCell>
        <mxCell id="5iCUW2i08om3TZ-6oU05-93" style="edgeStyle=orthogonalEdgeStyle;rounded=0;orthogonalLoop=1;jettySize=auto;html=1;exitX=1;exitY=0.25;exitDx=0;exitDy=0;" parent="1" source="5iCUW2i08om3TZ-6oU05-73" edge="1">
          <mxGeometry relative="1" as="geometry">
            <mxPoint x="660" y="240" as="targetPoint" />
            <Array as="points">
              <mxPoint x="650" y="278" />
              <mxPoint x="650" y="240" />
            </Array>
          </mxGeometry>
        </mxCell>
        <mxCell id="5iCUW2i08om3TZ-6oU05-73" value="Invite Team member" style="rounded=1;whiteSpace=wrap;html=1;" parent="1" vertex="1">
          <mxGeometry x="520" y="266" width="120" height="30" as="geometry" />
        </mxCell>
        <mxCell id="5iCUW2i08om3TZ-6oU05-81" style="edgeStyle=orthogonalEdgeStyle;rounded=0;orthogonalLoop=1;jettySize=auto;html=1;exitX=1;exitY=0.5;exitDx=0;exitDy=0;entryX=0;entryY=0.25;entryDx=0;entryDy=0;" parent="1" source="5iCUW2i08om3TZ-6oU05-77" target="5iCUW2i08om3TZ-6oU05-79" edge="1">
          <mxGeometry relative="1" as="geometry">
            <Array as="points">
              <mxPoint x="330" y="360" />
              <mxPoint x="340" y="360" />
              <mxPoint x="340" y="338" />
            </Array>
          </mxGeometry>
        </mxCell>
        <mxCell id="5iCUW2i08om3TZ-6oU05-86" style="edgeStyle=orthogonalEdgeStyle;rounded=0;orthogonalLoop=1;jettySize=auto;html=1;exitX=1;exitY=0.5;exitDx=0;exitDy=0;entryX=0;entryY=0.5;entryDx=0;entryDy=0;" parent="1" source="5iCUW2i08om3TZ-6oU05-77" target="5iCUW2i08om3TZ-6oU05-85" edge="1">
          <mxGeometry relative="1" as="geometry">
            <Array as="points">
              <mxPoint x="320" y="360" />
              <mxPoint x="340" y="360" />
              <mxPoint x="340" y="385" />
            </Array>
          </mxGeometry>
        </mxCell>
        <mxCell id="5iCUW2i08om3TZ-6oU05-77" value="Shop" style="rounded=1;whiteSpace=wrap;html=1;" parent="1" vertex="1">
          <mxGeometry x="210" y="340" width="120" height="60" as="geometry" />
        </mxCell>
        <mxCell id="5iCUW2i08om3TZ-6oU05-94" style="edgeStyle=orthogonalEdgeStyle;rounded=0;orthogonalLoop=1;jettySize=auto;html=1;exitX=1;exitY=0.5;exitDx=0;exitDy=0;entryX=0;entryY=0.5;entryDx=0;entryDy=0;" parent="1" source="5iCUW2i08om3TZ-6oU05-79" target="5iCUW2i08om3TZ-6oU05-80" edge="1">
          <mxGeometry relative="1" as="geometry">
            <Array as="points">
              <mxPoint x="490" y="345" />
              <mxPoint x="490" y="385" />
            </Array>
          </mxGeometry>
        </mxCell>
        <mxCell id="5iCUW2i08om3TZ-6oU05-79" value="Create Order" style="rounded=1;whiteSpace=wrap;html=1;" parent="1" vertex="1">
          <mxGeometry x="360" y="330" width="120" height="30" as="geometry" />
        </mxCell>
        <mxCell id="5iCUW2i08om3TZ-6oU05-84" style="edgeStyle=orthogonalEdgeStyle;rounded=0;orthogonalLoop=1;jettySize=auto;html=1;exitX=1;exitY=0.5;exitDx=0;exitDy=0;entryX=0;entryY=0.5;entryDx=0;entryDy=0;" parent="1" source="5iCUW2i08om3TZ-6oU05-80" target="5iCUW2i08om3TZ-6oU05-83" edge="1">
          <mxGeometry relative="1" as="geometry" />
        </mxCell>
        <mxCell id="5iCUW2i08om3TZ-6oU05-80" value="Payment" style="rounded=1;whiteSpace=wrap;html=1;" parent="1" vertex="1">
          <mxGeometry x="520" y="370" width="120" height="30" as="geometry" />
        </mxCell>
        <mxCell id="5iCUW2i08om3TZ-6oU05-83" value="Shipping" style="rounded=1;whiteSpace=wrap;html=1;" parent="1" vertex="1">
          <mxGeometry x="660" y="370" width="120" height="30" as="geometry" />
        </mxCell>
        <mxCell id="5iCUW2i08om3TZ-6oU05-85" value="Check Order" style="rounded=1;whiteSpace=wrap;html=1;" parent="1" vertex="1">
          <mxGeometry x="360" y="370" width="120" height="30" as="geometry" />
        </mxCell>
        <mxCell id="5iCUW2i08om3TZ-6oU05-97" style="edgeStyle=orthogonalEdgeStyle;rounded=0;orthogonalLoop=1;jettySize=auto;html=1;exitX=1;exitY=0.5;exitDx=0;exitDy=0;" parent="1" source="5iCUW2i08om3TZ-6oU05-88" target="5iCUW2i08om3TZ-6oU05-96" edge="1">
          <mxGeometry relative="1" as="geometry" />
        </mxCell>
        <mxCell id="5iCUW2i08om3TZ-6oU05-99" style="edgeStyle=orthogonalEdgeStyle;rounded=0;orthogonalLoop=1;jettySize=auto;html=1;exitX=1;exitY=0.5;exitDx=0;exitDy=0;entryX=0;entryY=0.5;entryDx=0;entryDy=0;" parent="1" source="5iCUW2i08om3TZ-6oU05-88" target="5iCUW2i08om3TZ-6oU05-98" edge="1">
          <mxGeometry relative="1" as="geometry" />
        </mxCell>
        <mxCell id="5iCUW2i08om3TZ-6oU05-88" value="Story" style="rounded=1;whiteSpace=wrap;html=1;" parent="1" vertex="1">
          <mxGeometry x="360" y="295" width="120" height="30" as="geometry" />
        </mxCell>
        <mxCell id="5iCUW2i08om3TZ-6oU05-90" value="View Team Member Info" style="rounded=1;whiteSpace=wrap;html=1;" parent="1" vertex="1">
          <mxGeometry x="670" y="230" width="120" height="30" as="geometry" />
        </mxCell>
        <mxCell id="5iCUW2i08om3TZ-6oU05-96" value="Publish Story" style="rounded=1;whiteSpace=wrap;html=1;" parent="1" vertex="1">
          <mxGeometry x="520" y="304" width="120" height="27" as="geometry" />
        </mxCell>
        <mxCell id="5iCUW2i08om3TZ-6oU05-98" value="View Story" style="rounded=1;whiteSpace=wrap;html=1;" parent="1" vertex="1">
          <mxGeometry x="520" y="337" width="120" height="27" as="geometry" />
        </mxCell>
        <mxCell id="5iCUW2i08om3TZ-6oU05-122" style="edgeStyle=orthogonalEdgeStyle;rounded=0;orthogonalLoop=1;jettySize=auto;html=1;exitX=1;exitY=0.25;exitDx=0;exitDy=0;entryX=0;entryY=0.5;entryDx=0;entryDy=0;" parent="1" source="5iCUW2i08om3TZ-6oU05-100" target="5iCUW2i08om3TZ-6oU05-120" edge="1">
          <mxGeometry relative="1" as="geometry" />
        </mxCell>
        <mxCell id="5iCUW2i08om3TZ-6oU05-124" style="edgeStyle=orthogonalEdgeStyle;rounded=0;orthogonalLoop=1;jettySize=auto;html=1;exitX=1;exitY=0.25;exitDx=0;exitDy=0;entryX=0;entryY=0.5;entryDx=0;entryDy=0;" parent="1" source="5iCUW2i08om3TZ-6oU05-100" target="5iCUW2i08om3TZ-6oU05-114" edge="1">
          <mxGeometry relative="1" as="geometry">
            <Array as="points">
              <mxPoint x="340" y="435" />
              <mxPoint x="340" y="475" />
            </Array>
          </mxGeometry>
        </mxCell>
        <mxCell id="5iCUW2i08om3TZ-6oU05-126" style="edgeStyle=orthogonalEdgeStyle;rounded=0;orthogonalLoop=1;jettySize=auto;html=1;exitX=1;exitY=0.25;exitDx=0;exitDy=0;entryX=0;entryY=0.5;entryDx=0;entryDy=0;" parent="1" source="5iCUW2i08om3TZ-6oU05-100" target="5iCUW2i08om3TZ-6oU05-125" edge="1">
          <mxGeometry relative="1" as="geometry">
            <Array as="points">
              <mxPoint x="340" y="435" />
              <mxPoint x="340" y="515" />
            </Array>
          </mxGeometry>
        </mxCell>
        <mxCell id="5iCUW2i08om3TZ-6oU05-100" value="Tournament" style="rounded=1;whiteSpace=wrap;html=1;" parent="1" vertex="1">
          <mxGeometry x="210" y="420" width="120" height="60" as="geometry" />
        </mxCell>
        <mxCell id="5iCUW2i08om3TZ-6oU05-107" style="edgeStyle=orthogonalEdgeStyle;rounded=0;orthogonalLoop=1;jettySize=auto;html=1;exitX=1;exitY=0.5;exitDx=0;exitDy=0;entryX=0;entryY=0.5;entryDx=0;entryDy=0;" parent="1" source="5iCUW2i08om3TZ-6oU05-102" target="5iCUW2i08om3TZ-6oU05-104" edge="1">
          <mxGeometry relative="1" as="geometry" />
        </mxCell>
        <mxCell id="5iCUW2i08om3TZ-6oU05-111" style="edgeStyle=orthogonalEdgeStyle;rounded=0;orthogonalLoop=1;jettySize=auto;html=1;exitX=1;exitY=0.5;exitDx=0;exitDy=0;entryX=0;entryY=0.5;entryDx=0;entryDy=0;" parent="1" source="5iCUW2i08om3TZ-6oU05-102" target="5iCUW2i08om3TZ-6oU05-108" edge="1">
          <mxGeometry relative="1" as="geometry">
            <Array as="points">
              <mxPoint x="650" y="435" />
              <mxPoint x="650" y="475" />
            </Array>
          </mxGeometry>
        </mxCell>
        <mxCell id="5iCUW2i08om3TZ-6oU05-113" style="edgeStyle=orthogonalEdgeStyle;rounded=0;orthogonalLoop=1;jettySize=auto;html=1;exitX=1;exitY=0.5;exitDx=0;exitDy=0;entryX=0;entryY=0.25;entryDx=0;entryDy=0;" parent="1" source="5iCUW2i08om3TZ-6oU05-102" target="5iCUW2i08om3TZ-6oU05-112" edge="1">
          <mxGeometry relative="1" as="geometry">
            <Array as="points">
              <mxPoint x="650" y="435" />
              <mxPoint x="650" y="507" />
            </Array>
          </mxGeometry>
        </mxCell>
        <mxCell id="5iCUW2i08om3TZ-6oU05-102" value="Join Campainte" style="rounded=1;whiteSpace=wrap;html=1;" parent="1" vertex="1">
          <mxGeometry x="520" y="420" width="120" height="30" as="geometry" />
        </mxCell>
        <mxCell id="5iCUW2i08om3TZ-6oU05-104" value="Direct Join" style="rounded=1;whiteSpace=wrap;html=1;" parent="1" vertex="1">
          <mxGeometry x="670" y="420" width="120" height="30" as="geometry" />
        </mxCell>
        <mxCell id="5iCUW2i08om3TZ-6oU05-108" value="Invite Team member Join Campainte" style="rounded=1;whiteSpace=wrap;html=1;" parent="1" vertex="1">
          <mxGeometry x="670" y="460" width="120" height="30" as="geometry" />
        </mxCell>
        <mxCell id="5iCUW2i08om3TZ-6oU05-112" value="Friend Invite" style="rounded=1;whiteSpace=wrap;html=1;" parent="1" vertex="1">
          <mxGeometry x="670" y="500" width="120" height="30" as="geometry" />
        </mxCell>
        <mxCell id="5iCUW2i08om3TZ-6oU05-114" value="Minigames" style="rounded=1;whiteSpace=wrap;html=1;" parent="1" vertex="1">
          <mxGeometry x="360" y="460" width="120" height="30" as="geometry" />
        </mxCell>
        <mxCell id="5iCUW2i08om3TZ-6oU05-121" style="edgeStyle=orthogonalEdgeStyle;rounded=0;orthogonalLoop=1;jettySize=auto;html=1;exitX=1;exitY=0.25;exitDx=0;exitDy=0;entryX=0;entryY=0.25;entryDx=0;entryDy=0;" parent="1" source="5iCUW2i08om3TZ-6oU05-120" target="5iCUW2i08om3TZ-6oU05-102" edge="1">
          <mxGeometry relative="1" as="geometry" />
        </mxCell>
        <mxCell id="5iCUW2i08om3TZ-6oU05-120" value="Competition" style="rounded=1;whiteSpace=wrap;html=1;" parent="1" vertex="1">
          <mxGeometry x="360" y="420" width="120" height="30" as="geometry" />
        </mxCell>
        <mxCell id="5iCUW2i08om3TZ-6oU05-134" style="edgeStyle=orthogonalEdgeStyle;rounded=0;orthogonalLoop=1;jettySize=auto;html=1;exitX=1;exitY=0.25;exitDx=0;exitDy=0;entryX=0;entryY=0.25;entryDx=0;entryDy=0;" parent="1" source="5iCUW2i08om3TZ-6oU05-125" target="5iCUW2i08om3TZ-6oU05-130" edge="1">
          <mxGeometry relative="1" as="geometry" />
        </mxCell>
        <mxCell id="5iCUW2i08om3TZ-6oU05-125" value="Tournament" style="rounded=1;whiteSpace=wrap;html=1;" parent="1" vertex="1">
          <mxGeometry x="360" y="500" width="120" height="30" as="geometry" />
        </mxCell>
        <mxCell id="5iCUW2i08om3TZ-6oU05-127" style="edgeStyle=orthogonalEdgeStyle;rounded=0;orthogonalLoop=1;jettySize=auto;html=1;exitX=1;exitY=0.5;exitDx=0;exitDy=0;entryX=0;entryY=0.5;entryDx=0;entryDy=0;" parent="1" source="5iCUW2i08om3TZ-6oU05-130" target="5iCUW2i08om3TZ-6oU05-131" edge="1">
          <mxGeometry relative="1" as="geometry">
            <Array as="points">
              <mxPoint x="650" y="515" />
              <mxPoint x="650" y="555" />
            </Array>
          </mxGeometry>
        </mxCell>
        <mxCell id="5iCUW2i08om3TZ-6oU05-128" style="edgeStyle=orthogonalEdgeStyle;rounded=0;orthogonalLoop=1;jettySize=auto;html=1;exitX=1;exitY=0.5;exitDx=0;exitDy=0;entryX=0;entryY=0.5;entryDx=0;entryDy=0;" parent="1" source="5iCUW2i08om3TZ-6oU05-130" target="5iCUW2i08om3TZ-6oU05-132" edge="1">
          <mxGeometry relative="1" as="geometry">
            <Array as="points">
              <mxPoint x="650" y="515" />
              <mxPoint x="650" y="595" />
            </Array>
          </mxGeometry>
        </mxCell>
        <mxCell id="5iCUW2i08om3TZ-6oU05-129" style="edgeStyle=orthogonalEdgeStyle;rounded=0;orthogonalLoop=1;jettySize=auto;html=1;exitX=1;exitY=0.5;exitDx=0;exitDy=0;entryX=0;entryY=0.25;entryDx=0;entryDy=0;" parent="1" source="5iCUW2i08om3TZ-6oU05-130" target="5iCUW2i08om3TZ-6oU05-133" edge="1">
          <mxGeometry relative="1" as="geometry">
            <Array as="points">
              <mxPoint x="650" y="515" />
              <mxPoint x="650" y="627" />
            </Array>
          </mxGeometry>
        </mxCell>
        <mxCell id="5iCUW2i08om3TZ-6oU05-130" value="Join Campainte" style="rounded=1;whiteSpace=wrap;html=1;" parent="1" vertex="1">
          <mxGeometry x="520" y="500" width="120" height="30" as="geometry" />
        </mxCell>
        <mxCell id="5iCUW2i08om3TZ-6oU05-131" value="Direct Join" style="rounded=1;whiteSpace=wrap;html=1;" parent="1" vertex="1">
          <mxGeometry x="670" y="540" width="120" height="30" as="geometry" />
        </mxCell>
        <mxCell id="5iCUW2i08om3TZ-6oU05-132" value="Invite Team member Join Campainte" style="rounded=1;whiteSpace=wrap;html=1;" parent="1" vertex="1">
          <mxGeometry x="670" y="580" width="120" height="30" as="geometry" />
        </mxCell>
        <mxCell id="5iCUW2i08om3TZ-6oU05-133" value="Friend Invite" style="rounded=1;whiteSpace=wrap;html=1;" parent="1" vertex="1">
          <mxGeometry x="670" y="620" width="120" height="30" as="geometry" />
        </mxCell>
        <mxCell id="5iCUW2i08om3TZ-6oU05-138" value="Live" style="rounded=1;whiteSpace=wrap;html=1;" parent="1" vertex="1">
          <mxGeometry x="210" y="520" width="120" height="60" as="geometry" />
        </mxCell>
        <mxCell id="5iCUW2i08om3TZ-6oU05-140" value="Check Tournament" style="whiteSpace=wrap;html=1;rounded=1;" parent="1" vertex="1">
          <mxGeometry x="360" y="40" width="120" height="30" as="geometry" />
        </mxCell>
        <mxCell id="5iCUW2i08om3TZ-6oU05-146" value="Refer" style="rounded=1;whiteSpace=wrap;html=1;" parent="1" vertex="1">
          <mxGeometry x="210" y="605" width="120" height="60" as="geometry" />
        </mxCell>
      </root>
    </mxGraphModel>
  </diagram>
</mxfile>
